<svg width="100%" height="100%" viewBox="0 0 20 19" fill="none" xmlns="http://www.w3.org/2000/svg">
<path fill-rule="evenodd" clip-rule="evenodd" d="M1.37502 0.415872C1.00933 0.287368 0.608682 0.479539 0.480081 0.845227C0.351578 1.21092 0.543744 1.61156 0.909433 1.74007L1.15384 1.82609C1.77859 2.0457 2.1892 2.19129 2.49132 2.33952C2.77508 2.47876 2.90016 2.59145 2.98258 2.71204C3.06704 2.83557 3.13227 3.00537 3.16909 3.34538C3.20756 3.70121 3.20853 4.16464 3.20853 4.85705V7.40388C3.20853 8.76313 3.22123 9.74322 3.34954 10.4921C3.48644 11.2915 3.75985 11.8639 4.27093 12.403C4.82674 12.9892 5.53117 13.2444 6.36986 13.3633C7.17301 13.4771 8.19283 13.4771 9.45209 13.4771H14.5107C15.2048 13.4771 15.7888 13.4771 16.2613 13.4193C16.7626 13.358 17.2198 13.2238 17.619 12.8987C18.0181 12.5734 18.2417 12.1527 18.403 11.6741C18.555 11.2229 18.6729 10.6509 18.813 9.97122L19.2892 7.66041L19.2901 7.65611L19.2999 7.60719C19.454 6.83529 19.5837 6.18594 19.6159 5.66372C19.6498 5.11514 19.5873 4.57427 19.23 4.10976C19.0101 3.82395 18.7009 3.66215 18.4198 3.56333C18.1329 3.46256 17.8086 3.40426 17.4813 3.36764C16.8384 3.29578 16.0573 3.29578 15.2913 3.29578H4.57462C4.57149 3.2614 4.56817 3.22762 4.56456 3.19432C4.51427 2.72982 4.40539 2.30622 4.14145 1.92003C3.87556 1.5309 3.52198 1.28161 3.10962 1.07929C2.72401 0.890145 2.23402 0.717895 1.65702 0.515082L1.37502 0.415872ZM4.61221 4.69945H15.2621C16.0635 4.69945 16.7688 4.70043 17.3255 4.76263C17.602 4.79358 17.809 4.83655 17.9544 4.88762C18.0733 4.92941 18.1136 4.96349 18.1193 4.96847C18.1768 5.04464 18.2392 5.18281 18.2148 5.5772C18.1893 5.9923 18.0803 6.54654 17.914 7.37928L17.9136 7.38143L17.4468 9.64606C17.2958 10.3787 17.1942 10.8656 17.0729 11.2258C16.9576 11.5677 16.8494 11.715 16.7323 11.8105C16.6151 11.906 16.4489 11.9823 16.0908 12.0261C15.7135 12.0722 15.2161 12.0735 14.4681 12.0735H9.50579C8.17994 12.0735 7.26001 12.0718 6.56691 11.9735C5.89803 11.8787 5.54464 11.7063 5.28959 11.4373C4.99001 11.1213 4.8284 10.8119 4.733 10.2551C4.62901 9.64782 4.61221 8.79731 4.61221 7.40388V4.69945Z" fill="#040404"/>
<path fill-rule="evenodd" clip-rule="evenodd" d="M6.28906 18.6236C5.12628 18.6236 4.18359 17.6809 4.18359 16.5182C4.18359 15.3553 5.12628 14.4126 6.28906 14.4126C7.45194 14.4126 8.39462 15.3553 8.39462 16.5182C8.39462 17.6809 7.45194 18.6236 6.28906 18.6236ZM5.58727 16.5182C5.58727 16.9057 5.9015 17.22 6.28906 17.22C6.67672 17.22 6.99095 16.9057 6.99095 16.5182C6.99095 16.1305 6.67672 15.8163 6.28906 15.8163C5.9015 15.8163 5.58727 16.1305 5.58727 16.5182Z" fill="#040404"/>
<path fill-rule="evenodd" clip-rule="evenodd" d="M14.7109 18.6241C13.5482 18.6241 12.6055 17.6814 12.6055 16.5186C12.6055 15.3558 13.5482 14.4131 14.7109 14.4131C15.8738 14.4131 16.8165 15.3558 16.8165 16.5186C16.8165 17.6814 15.8738 18.6241 14.7109 18.6241ZM14.0091 16.5186C14.0091 16.9062 14.3234 17.2204 14.7109 17.2204C15.0986 17.2204 15.4128 16.9062 15.4128 16.5186C15.4128 16.131 15.0986 15.8168 14.7109 15.8168C14.3234 15.8168 14.0091 16.131 14.0091 16.5186Z" fill="#040404"/>
</svg>
