
<svg version="1.0" xmlns="http://www.w3.org/2000/svg"
 width="50pt" height="50pt" viewBox="0 0 512.000000 512.000000"
 preserveAspectRatio="xMidYMid meet">

<g transform="translate(0.000000,512.000000) scale(0.100000,-0.100000)"
fill="#000000" stroke="none">
<path d="M1783 5106 c-129 -30 -260 -119 -332 -227 -41 -61 -81 -168 -81 -218
0 -22 -12 -32 -72 -66 -85 -48 -203 -155 -253 -230 l-36 -55 -463 0 c-477 0
-516 -3 -536 -40 -7 -12 -10 -768 -10 -2120 l0 -2101 25 -24 24 -25 1856 0
1856 0 24 25 c23 23 25 31 25 130 0 104 -1 107 -29 136 -32 32 -47 35 -85 18
-29 -13 -46 -55 -46 -110 l0 -39 -1745 0 -1745 0 0 1995 0 1995 394 0 393 0
-14 -57 c-7 -32 -16 -106 -20 -164 -5 -100 -5 -107 16 -128 l21 -21 959 0 960
0 20 26 c14 18 21 41 21 73 0 50 -25 225 -35 254 -7 16 17 17 389 17 l396 0 0
-279 c0 -266 1 -279 21 -305 25 -32 75 -35 110 -7 l24 19 0 341 0 340 -23 23
-23 23 -482 3 -482 4 -50 71 c-56 80 -156 169 -242 215 l-58 31 -13 68 c-35
184 -178 339 -369 399 -70 22 -216 27 -290 10z m289 -173 c133 -63 217 -192
218 -336 0 -21 5 -47 10 -57 6 -11 52 -41 103 -67 179 -92 287 -240 322 -437
8 -49 15 -93 15 -97 0 -5 -364 -8 -837 -7 l-838 3 3 40 c6 69 41 184 74 248
48 91 163 203 264 255 45 23 86 47 91 54 6 7 13 45 16 83 10 127 61 218 157
284 81 55 141 72 245 68 76 -2 100 -8 157 -34z"/>
<path d="M1823 4806 c-104 -34 -169 -93 -204 -187 -71 -187 80 -404 281 -404
114 0 210 57 265 156 27 49 30 63 30 144 0 81 -3 95 -30 144 -67 121 -220 187
-342 147z m141 -160 c70 -29 104 -128 69 -196 -55 -107 -206 -107 -260 0 -13
24 -23 54 -23 65 0 11 10 41 23 65 36 71 114 98 191 66z"/>
<path d="M3535 3371 c-49 -26 -304 -162 -565 -301 -618 -329 -760 -407 -787
-433 l-23 -20 -2 -416 -3 -416 -72 -7 c-163 -16 -322 -94 -443 -217 -112 -115
-177 -236 -206 -387 -47 -247 26 -484 204 -667 155 -158 356 -237 572 -224
118 7 192 27 295 77 172 85 314 246 370 418 9 28 20 52 24 52 4 0 166 -101
360 -225 235 -149 362 -225 380 -225 25 0 1420 737 1461 772 20 18 20 27 20
731 l0 714 -22 20 c-13 11 -264 152 -558 313 -294 161 -616 337 -716 391 -99
54 -184 99 -190 99 -5 0 -49 -22 -99 -49z m708 -452 c337 -183 618 -337 625
-344 10 -9 -22 -30 -147 -98 l-159 -88 -458 252 c-253 139 -535 294 -627 345
-116 63 -164 95 -155 100 15 10 301 163 306 163 2 1 279 -148 615 -330z m-683
-166 c190 -104 474 -261 633 -347 l287 -158 0 -188 0 -189 -92 -50 -93 -50 -5
189 c-4 150 -8 192 -20 204 -8 8 -307 173 -665 366 -357 194 -651 353 -652
354 -2 2 39 25 90 53 l92 51 40 -23 c22 -13 195 -108 385 -212z m-142 -298
c342 -187 622 -342 622 -345 0 -3 -92 -56 -205 -119 l-205 -113 -607 342
c-335 189 -614 349 -621 355 -11 10 24 33 185 119 109 58 201 105 204 103 3
-1 285 -155 627 -342z m-488 -354 l615 -348 3 -567 c2 -529 1 -568 -15 -562
-9 4 -155 93 -324 199 l-308 192 -1 48 c0 66 -27 190 -56 261 -55 135 -183
282 -311 357 -50 29 -149 67 -220 85 -10 3 -13 80 -13 344 0 187 3 340 8 340
4 0 284 -157 622 -349z m2030 -264 l0 -583 -512 -269 c-282 -148 -564 -295
-625 -328 l-113 -59 0 574 0 574 205 112 c112 62 207 112 210 112 3 0 5 -71 5
-157 0 -214 13 -253 84 -253 29 0 381 190 402 217 10 14 13 70 14 245 l0 226
158 86 c86 47 160 85 165 86 4 0 7 -262 7 -583z m-2637 -224 c159 -46 297
-161 365 -304 23 -46 46 -112 53 -147 16 -87 7 -241 -21 -319 -61 -174 -213
-319 -395 -376 -102 -31 -253 -29 -352 6 -96 33 -151 66 -226 137 -108 101
-174 239 -184 385 -8 114 10 203 62 310 84 175 240 289 442 325 62 11 190 3
256 -17z"/>
<path d="M2503 1331 c-12 -3 -122 -98 -244 -211 -123 -113 -233 -213 -245
-223 -23 -17 -23 -17 -109 103 -93 129 -112 143 -163 116 -67 -34 -58 -69 59
-242 139 -205 148 -213 202 -190 36 15 597 536 598 556 2 28 -3 55 -13 67 -14
17 -60 30 -85 24z"/>
<path d="M486 3369 l-26 -20 0 -319 c0 -316 0 -319 22 -340 21 -19 34 -20 319
-20 l298 0 20 26 c20 26 21 38 21 336 l0 309 -25 24 -24 25 -289 0 c-278 0
-290 -1 -316 -21z m502 -331 l-3 -203 -187 -3 -188 -2 0 205 0 205 190 0 190
0 -2 -202z"/>
<path d="M1305 3085 c-31 -30 -33 -77 -5 -105 20 -20 33 -20 610 -20 577 0
590 0 610 20 12 12 20 33 20 55 0 22 -8 43 -20 55 -20 20 -33 20 -605 20
l-586 0 -24 -25z"/>
<path d="M482 2327 c-22 -23 -22 -29 -22 -338 l0 -316 23 -21 c23 -22 29 -22
316 -22 l292 0 24 25 25 24 0 311 0 311 -25 24 -24 25 -294 0 -294 0 -21 -23z
m503 -337 l0 -205 -185 0 -185 0 -3 195 c-1 107 0 200 3 207 3 11 44 13 187
11 l183 -3 0 -205z"/>
<path d="M1291 2034 c-28 -35 -26 -69 4 -99 l24 -25 354 0 354 0 21 23 c28 30
29 80 2 107 -19 19 -33 20 -379 20 l-360 0 -20 -26z"/>
<path d="M482 1287 c-22 -23 -22 -29 -22 -338 l0 -316 23 -21 c23 -22 29 -22
316 -22 l292 0 24 25 25 24 0 311 0 311 -25 24 -24 25 -294 0 -294 0 -21 -23z
m503 -337 l0 -205 -185 0 -185 0 -3 195 c-1 107 0 200 3 207 3 11 44 13 187
11 l183 -3 0 -205z"/>
</g>
</svg>
