<svg version="1.0" xmlns="http://www.w3.org/2000/svg"
 width="50pt" height="50pt" viewBox="0 0 512.000000 512.000000"
 preserveAspectRatio="xMidYMid meet">

<g transform="translate(0.000000,512.000000) scale(0.100000,-0.100000)"
fill="#000000" stroke="none">
<path d="M159 5106 c-77 -27 -143 -105 -154 -179 -3 -23 -5 -911 -3 -1973 l3
-1931 30 -49 c19 -30 49 -60 79 -79 l49 -30 1056 -3 c581 -1 1066 0 1079 3 61
15 82 86 37 130 l-24 25 -1051 0 -1051 0 -24 25 -25 24 0 1591 0 1590 2400 0
2400 0 0 -1586 0 -1586 -29 -29 c-17 -16 -40 -29 -54 -29 -39 0 -77 -36 -77
-74 0 -71 53 -98 143 -72 68 20 128 72 156 135 l21 50 -2 1948 c-3 1821 -4
1950 -20 1979 -22 41 -71 90 -112 112 -29 16 -181 17 -2411 19 -1939 2 -2387
0 -2416 -11z m4776 -171 l25 -24 0 -251 0 -250 -2400 0 -2400 0 0 250 0 251
25 24 24 25 2351 0 2351 0 24 -25z"/>
<path d="M425 4735 c-30 -30 -32 -64 -4 -99 43 -54 129 -23 129 47 0 69 -77
101 -125 52z"/>
<path d="M762 4737 c-47 -50 -15 -127 51 -127 69 0 101 77 52 125 -31 32 -74
33 -103 2z"/>
<path d="M1112 4753 c-21 -8 -43 -61 -36 -88 14 -57 97 -75 133 -29 28 35 26
69 -4 99 -23 24 -61 31 -93 18z"/>
<path d="M1761 4734 c-28 -35 -26 -67 3 -101 l24 -28 1364 -3 c749 -1 1378 0
1396 3 68 12 96 89 49 133 l-23 22 -1396 0 -1397 0 -20 -26z"/>
<path d="M575 3853 c-47 -24 -76 -54 -96 -98 -18 -38 -19 -83 -19 -811 l0
-770 26 -52 c19 -39 38 -59 72 -80 l47 -27 785 -3 c528 -2 801 1 834 8 64 14
113 52 137 106 19 41 19 75 17 832 l-3 788 -24 36 c-13 19 -40 46 -59 59 l-36
24 -825 2 c-739 2 -829 1 -856 -14z m507 -432 c3 -274 4 -291 24 -318 29 -39
86 -66 125 -58 16 4 58 30 91 58 117 100 100 96 160 40 86 -80 107 -93 150
-93 53 0 92 22 112 64 14 29 16 76 16 315 l0 281 228 -2 227 -3 3 -755 c2
-701 1 -756 -15 -767 -22 -17 -1533 -19 -1564 -3 -19 10 -19 29 -19 755 0 409
3 750 6 759 5 14 35 16 229 16 l224 0 3 -289z m518 64 c0 -124 -4 -225 -8
-225 -4 0 -24 16 -43 36 -44 46 -79 64 -126 64 -41 0 -64 -13 -126 -67 -20
-18 -42 -33 -47 -33 -6 0 -10 82 -10 225 l0 225 180 0 180 0 0 -225z"/>
<path d="M1562 2547 c-27 -29 -28 -77 -3 -108 19 -23 25 -24 187 -27 186 -4
205 -1 234 30 26 28 26 68 -1 102 l-20 26 -188 0 c-183 0 -188 -1 -209 -23z"/>
<path d="M2882 3234 c-56 -28 -92 -67 -117 -127 -21 -51 -22 -540 -1 -591 19
-46 73 -104 117 -127 43 -21 143 -35 183 -25 65 16 88 91 43 134 -18 17 -36
22 -76 22 -56 0 -105 19 -115 45 -3 9 -6 123 -6 254 0 235 0 238 23 259 l23
22 730 0 c582 -1 732 -3 746 -14 32 -24 38 -65 38 -272 0 -226 -8 -266 -55
-284 -15 -6 -88 -10 -164 -10 -131 0 -139 -1 -159 -23 -43 -45 -20 -117 42
-133 14 -3 89 -4 168 -2 122 3 149 7 183 25 51 27 91 67 119 118 20 38 21 53
21 305 0 258 -1 266 -23 312 -28 57 -88 110 -141 126 -27 9 -247 12 -783 12
l-744 0 -52 -26z"/>
<path d="M3488 2915 c-86 -32 -143 -98 -172 -195 -14 -47 -16 -152 -16 -847
l0 -793 -141 122 c-77 68 -165 136 -196 152 -72 37 -160 45 -231 22 -94 -32
-172 -145 -172 -252 0 -52 35 -150 73 -202 48 -68 570 -707 621 -761 57 -61
149 -118 226 -142 63 -19 90 -20 511 -17 428 3 446 4 490 24 55 26 111 79 141
137 23 42 23 42 26 622 2 407 0 596 -8 632 -16 73 -81 166 -152 219 -66 48
-204 98 -428 154 -69 17 -142 35 -162 41 l-37 10 -3 437 -3 437 -25 50 c-29
60 -82 114 -135 140 -51 24 -157 30 -207 10z m157 -167 c54 -42 55 -51 55
-513 0 -337 3 -432 14 -458 25 -62 62 -81 228 -122 194 -48 369 -100 418 -125
44 -22 97 -80 116 -126 11 -27 14 -140 14 -589 0 -614 2 -596 -63 -635 -30
-19 -53 -20 -457 -20 l-425 0 -60 29 c-33 17 -74 42 -92 58 -56 49 -634 766
-655 812 -27 59 -20 117 18 150 23 19 36 22 74 19 60 -6 84 -23 307 -219 102
-90 195 -169 207 -176 33 -19 55 -15 87 16 l29 29 0 884 c0 571 4 896 10 920
22 79 114 114 175 66z"/>
<path d="M489 1751 c-16 -16 -29 -37 -29 -46 0 -24 27 -72 45 -79 9 -3 260 -6
558 -6 583 1 566 -1 586 53 13 33 1 69 -31 91 -20 14 -83 16 -561 16 l-539 0
-29 -29z"/>
<path d="M491 1423 c-11 -10 -24 -32 -27 -50 -5 -27 -1 -37 24 -63 l30 -30
215 0 c202 0 216 1 241 21 20 16 26 29 26 59 0 30 -6 43 -26 59 -25 20 -39 21
-244 21 -193 0 -220 -2 -239 -17z"/>
</g>
</svg>
