
<svg version="1.0" xmlns="http://www.w3.org/2000/svg"
 width="20" height="20" viewBox="0 0 512.000000 512.000000"
 preserveAspectRatio="xMidYMid meet">

<g transform="translate(0.000000,512.000000) scale(0.100000,-0.100000)"
fill="#000000" stroke="none">
<path d="M1290 4785 c-337 -69 -587 -329 -639 -665 -9 -56 -11 -473 -9 -1605
3 -1669 -1 -1540 58 -1697 66 -177 261 -372 438 -438 155 -58 66 -55 1422 -55
1356 0 1267 -3 1422 55 178 66 372 260 438 438 59 156 55 34 55 1742 0 1430
-1 1570 -17 1625 -43 157 -109 273 -213 378 -68 70 -184 148 -263 177 -156 59
-58 55 -1397 57 -987 1 -1243 -1 -1295 -12z m2505 -320 c172 -45 305 -179 350
-352 13 -49 15 -258 15 -1544 0 -969 -4 -1505 -10 -1540 -25 -131 -124 -266
-239 -328 -120 -64 -58 -61 -1351 -61 -1024 0 -1183 2 -1235 15 -172 45 -305
179 -350 352 -23 86 -23 3020 0 3106 45 171 177 306 346 351 83 23 2388 23
2474 1z"/>
<path d="M1535 3505 c-46 -25 -63 -44 -81 -91 -41 -108 48 -224 164 -211 148
17 193 199 70 290 -36 27 -114 33 -153 12z"/>
<path d="M2175 3506 c-67 -29 -105 -106 -91 -181 9 -47 59 -102 104 -115 25
-8 257 -10 714 -8 665 3 677 3 704 24 53 39 69 71 69 134 0 63 -16 95 -69 134
-27 21 -38 21 -714 23 -556 2 -693 0 -717 -11z"/>
<path d="M1535 2705 c-46 -25 -63 -44 -81 -91 -41 -108 48 -224 164 -211 148
17 193 199 70 290 -36 27 -114 33 -153 12z"/>
<path d="M2175 2706 c-67 -29 -105 -106 -91 -181 9 -47 59 -102 104 -115 25
-8 257 -10 714 -8 665 3 677 3 704 24 53 39 69 71 69 134 0 63 -16 95 -69 134
-27 21 -38 21 -714 23 -556 2 -693 0 -717 -11z"/>
<path d="M1535 1905 c-46 -25 -63 -44 -81 -91 -41 -108 48 -224 164 -211 148
17 193 199 70 290 -36 27 -114 33 -153 12z"/>
<path d="M2175 1906 c-67 -29 -105 -106 -91 -181 9 -47 59 -102 104 -115 25
-8 257 -10 714 -8 665 3 677 3 704 24 53 39 69 71 69 134 0 63 -16 95 -69 134
-27 21 -38 21 -714 23 -556 2 -693 0 -717 -11z"/>
</g>
</svg>
