
<svg version="1.0" xmlns="http://www.w3.org/2000/svg"
 width="20" height="20" viewBox="0 0 512.000000 512.000000"
 preserveAspectRatio="xMidYMid meet">

<g transform="translate(0.000000,512.000000) scale(0.100000,-0.100000)"
fill="#000000" stroke="none">
<path d="M2370 5105 c-407 -57 -759 -292 -979 -654 -154 -254 -220 -581 -175
-878 50 -342 219 -644 479 -860 45 -37 48 -42 30 -49 -178 -62 -397 -167 -548
-262 -149 -93 -273 -191 -415 -328 -353 -338 -598 -757 -724 -1238 -26 -100
-32 -140 -32 -231 0 -95 4 -121 28 -190 65 -187 203 -324 391 -387 l70 -23
1121 0 1120 0 41 27 c62 41 88 90 88 168 0 78 -26 127 -88 168 l-41 27 -1095
5 c-1007 5 -1099 6 -1127 22 -65 35 -114 115 -114 186 0 35 47 214 86 327 70
202 214 461 353 635 29 36 98 111 153 168 570 581 1398 799 2183 575 195 -55
402 -151 591 -274 116 -75 167 -94 223 -84 79 15 150 81 166 157 11 48 -4 113
-34 155 -56 77 -417 283 -636 363 -49 18 -94 36 -98 40 -4 4 18 28 50 54 32
26 91 84 132 129 483 538 462 1356 -49 1867 -303 303 -726 444 -1150 385z
m373 -406 c193 -39 354 -125 493 -263 139 -140 224 -299 264 -496 74 -359 -88
-759 -392 -968 -281 -193 -648 -223 -954 -78 -112 53 -165 89 -249 168 -239
223 -350 565 -285 878 40 197 125 356 264 496 230 229 548 327 859 263z"/>
<path d="M3552 1689 c-68 -20 -132 -111 -132 -189 0 -80 12 -95 293 -377 l271
-273 -271 -273 c-240 -240 -272 -277 -283 -317 -42 -159 91 -292 250 -250 40
11 77 43 318 283 l272 271 273 -271 c240 -240 277 -272 317 -283 159 -42 292
91 250 250 -11 40 -43 77 -283 317 l-271 273 271 272 c240 241 272 278 283
318 42 159 -91 292 -250 250 -40 -11 -77 -43 -317 -283 l-273 -271 -272 271
c-226 225 -280 273 -313 282 -47 13 -88 13 -133 0z"/>
</g>
</svg>
