<svg width="184" height="174" viewBox="0 0 184 174" fill="none" xmlns="http://www.w3.org/2000/svg">
<g filter="url(#filter0_d_949_24)">
<path d="M9.2769 141.229L23.8088 141.351C25.489 141.365 27.0639 140.534 28.0009 139.139L66.6989 81.5417C67.6402 80.1407 69.2247 79.3092 70.9123 79.3305L76.3557 79.3993C80.3235 79.4494 82.6547 83.8796 80.449 87.1782L31.7019 160.078C29.4803 163.4 31.8616 167.857 35.8583 167.857H163.476C167.924 167.857 170.158 162.485 167.021 159.332L156.024 148.273C155.085 147.329 153.809 146.799 152.478 146.799H74.4011C71.7513 146.799 69.5616 144.731 69.4094 142.086L69.1907 138.287C69.0255 135.418 71.3081 133 74.1825 133H174.774C178.751 133 181.136 128.583 178.955 125.258L100.172 5.12583C98.2412 2.18128 93.9526 2.10208 91.9142 4.97333L85.4858 14.028L84.8803 14.8257C83.5975 16.5155 83.5208 18.8308 84.6889 20.6018L136.2 98.7029C137.412 100.54 137.28 102.952 135.876 104.647L132.308 108.952C130.165 111.537 126.133 111.317 124.284 108.513L77.64 37.7784C75.6729 34.7953 71.3021 34.7788 69.3126 37.7469L5.16547 133.445C2.94932 136.751 5.2968 141.196 9.2769 141.229Z" fill="#191B1D"/>
</g>
<defs>
<filter id="filter0_d_949_24" x="0.310547" y="0.868164" width="183.472" height="172.989" filterUnits="userSpaceOnUse" color-interpolation-filters="sRGB">
<feFlood flood-opacity="0" result="BackgroundImageFix"/>
<feColorMatrix in="SourceAlpha" type="matrix" values="0 0 0 0 0 0 0 0 0 0 0 0 0 0 0 0 0 0 127 0" result="hardAlpha"/>
<feOffset dy="2"/>
<feGaussianBlur stdDeviation="2"/>
<feComposite in2="hardAlpha" operator="out"/>
<feColorMatrix type="matrix" values="0 0 0 0 0 0 0 0 0 0 0 0 0 0 0 0 0 0 0.15 0"/>
<feBlend mode="normal" in2="BackgroundImageFix" result="effect1_dropShadow_949_24"/>
<feBlend mode="normal" in="SourceGraphic" in2="effect1_dropShadow_949_24" result="shape"/>
</filter>
</defs>
</svg>
