<svg width="110" height="42" viewBox="0 0 110 42" fill="none" xmlns="http://www.w3.org/2000/svg">
<rect width="5" height="12" fill="white"/>
<rect width="14" height="4" fill="white"/>
<rect width="5" height="12" transform="matrix(-1 0 0 1 110 0)" fill="white"/>
<path d="M110 0H96V4H110V0Z" fill="white"/>
<path d="M11.5284 16.4062V15.2727H18.2827V16.4062H15.5597V24H14.2472V16.4062H11.5284ZM19.7752 24V15.2727H25.2468V16.4062H21.092V19.0653H24.9613V20.1946H21.092V22.8665H25.2979V24H19.7752ZM31.7656 17.5653C31.7202 17.1619 31.5327 16.8494 31.2031 16.6278C30.8736 16.4034 30.4588 16.2912 29.9588 16.2912C29.6009 16.2912 29.2912 16.348 29.0298 16.4616C28.7685 16.5724 28.5653 16.7259 28.4205 16.9219C28.2784 17.1151 28.2074 17.3352 28.2074 17.5824C28.2074 17.7898 28.2557 17.9687 28.3523 18.1193C28.4517 18.2699 28.581 18.3963 28.7401 18.4986C28.902 18.598 29.0753 18.6818 29.2599 18.75C29.4446 18.8153 29.6222 18.8693 29.7926 18.9119L30.6449 19.1335C30.9233 19.2017 31.2088 19.294 31.5014 19.4105C31.794 19.527 32.0653 19.6804 32.3153 19.8707C32.5653 20.0611 32.767 20.2969 32.9205 20.5781C33.0767 20.8594 33.1548 21.196 33.1548 21.5881C33.1548 22.0824 33.027 22.5213 32.7713 22.9048C32.5185 23.2884 32.1506 23.5909 31.6676 23.8125C31.1875 24.0341 30.6065 24.1449 29.9247 24.1449C29.2713 24.1449 28.706 24.0412 28.2287 23.8338C27.7514 23.6264 27.3778 23.3324 27.108 22.9517C26.8381 22.5682 26.6889 22.1136 26.6605 21.5881H27.9815C28.0071 21.9034 28.1094 22.1662 28.2884 22.3764C28.4702 22.5838 28.7017 22.7386 28.983 22.8409C29.267 22.9403 29.5781 22.9901 29.9162 22.9901C30.2884 22.9901 30.6193 22.9318 30.9091 22.8153C31.2017 22.696 31.4318 22.5312 31.5994 22.321C31.767 22.108 31.8509 21.8594 31.8509 21.5753C31.8509 21.3168 31.777 21.1051 31.6293 20.9403C31.4844 20.7756 31.2869 20.6392 31.0369 20.5312C30.7898 20.4233 30.5099 20.3281 30.1974 20.2457L29.1662 19.9645C28.4673 19.7741 27.9134 19.4943 27.5043 19.125C27.098 18.7557 26.8949 18.267 26.8949 17.6591C26.8949 17.1562 27.0313 16.7173 27.304 16.3423C27.5767 15.9673 27.946 15.6761 28.4119 15.4688C28.8778 15.2585 29.4034 15.1534 29.9886 15.1534C30.5795 15.1534 31.1009 15.2571 31.5526 15.4645C32.0071 15.6719 32.3651 15.9574 32.6264 16.321C32.8878 16.6818 33.0241 17.0966 33.0355 17.5653H31.7656ZM34.2979 16.4062V15.2727H41.0522V16.4062H38.3292V24H37.0167V16.4062H34.2979ZM42.8718 24.081C42.6388 24.081 42.4386 23.9986 42.271 23.8338C42.1033 23.6662 42.0195 23.4645 42.0195 23.2287C42.0195 22.9957 42.1033 22.7969 42.271 22.6321C42.4386 22.4645 42.6388 22.3807 42.8718 22.3807C43.1048 22.3807 43.305 22.4645 43.4727 22.6321C43.6403 22.7969 43.7241 22.9957 43.7241 23.2287C43.7241 23.3849 43.6843 23.5284 43.6048 23.6591C43.5281 23.7869 43.4258 23.8892 43.2979 23.9659C43.1701 24.0426 43.0281 24.081 42.8718 24.081ZM51.4872 24.1449C50.8139 24.142 50.2386 23.9645 49.7614 23.6122C49.2841 23.2599 48.919 22.7472 48.6662 22.0739C48.4134 21.4006 48.2869 20.5895 48.2869 19.6406C48.2869 18.6946 48.4134 17.8864 48.6662 17.2159C48.9219 16.5455 49.2884 16.0341 49.7656 15.6818C50.2457 15.3295 50.8196 15.1534 51.4872 15.1534C52.1548 15.1534 52.7273 15.331 53.2045 15.6861C53.6818 16.0384 54.0469 16.5497 54.2997 17.2202C54.5554 17.8878 54.6832 18.6946 54.6832 19.6406C54.6832 20.5923 54.5568 21.4048 54.304 22.0781C54.0511 22.7486 53.6861 23.2614 53.2088 23.6165C52.7315 23.9688 52.1577 24.1449 51.4872 24.1449ZM51.4872 23.0071C52.0781 23.0071 52.5398 22.7188 52.8722 22.142C53.2074 21.5653 53.375 20.7315 53.375 19.6406C53.375 18.9162 53.2983 18.304 53.1449 17.804C52.9943 17.3011 52.777 16.9205 52.4929 16.6619C52.2116 16.4006 51.8764 16.2699 51.4872 16.2699C50.8991 16.2699 50.4375 16.5597 50.1023 17.1392C49.767 17.7187 49.598 18.5526 49.5952 19.6406C49.5952 20.3679 49.6705 20.983 49.821 21.4858C49.9744 21.9858 50.1918 22.3651 50.473 22.6236C50.7543 22.8793 51.0923 23.0071 51.4872 23.0071ZM59.2333 24.1449C58.56 24.142 57.9847 23.9645 57.5075 23.6122C57.0302 23.2599 56.6651 22.7472 56.4123 22.0739C56.1594 21.4006 56.033 20.5895 56.033 19.6406C56.033 18.6946 56.1594 17.8864 56.4123 17.2159C56.668 16.5455 57.0344 16.0341 57.5117 15.6818C57.9918 15.3295 58.5657 15.1534 59.2333 15.1534C59.9009 15.1534 60.4734 15.331 60.9506 15.6861C61.4279 16.0384 61.793 16.5497 62.0458 17.2202C62.3015 17.8878 62.4293 18.6946 62.4293 19.6406C62.4293 20.5923 62.3029 21.4048 62.0501 22.0781C61.7972 22.7486 61.4322 23.2614 60.9549 23.6165C60.4776 23.9688 59.9038 24.1449 59.2333 24.1449ZM59.2333 23.0071C59.8242 23.0071 60.2859 22.7188 60.6183 22.142C60.9535 21.5653 61.1211 20.7315 61.1211 19.6406C61.1211 18.9162 61.0444 18.304 60.891 17.804C60.7404 17.3011 60.5231 16.9205 60.239 16.6619C59.9577 16.4006 59.6225 16.2699 59.2333 16.2699C58.6452 16.2699 58.1836 16.5597 57.8484 17.1392C57.5131 17.7187 57.3441 18.5526 57.3413 19.6406C57.3413 20.3679 57.4165 20.983 57.5671 21.4858C57.7205 21.9858 57.9379 22.3651 58.2191 22.6236C58.5004 22.8793 58.8384 23.0071 59.2333 23.0071ZM63.7578 22.2955V21.2301L67.5291 15.2727H68.3686V16.8409H67.8359L65.1385 21.1108V21.179H70.3075V22.2955H63.7578ZM67.8956 24V21.9716L67.9041 21.4858V15.2727H69.1527V24H67.8956ZM72.321 24.081C72.0881 24.081 71.8878 23.9986 71.7202 23.8338C71.5526 23.6662 71.4688 23.4645 71.4688 23.2287C71.4688 22.9957 71.5526 22.7969 71.7202 22.6321C71.8878 22.4645 72.0881 22.3807 72.321 22.3807C72.554 22.3807 72.7543 22.4645 72.9219 22.6321C73.0895 22.7969 73.1733 22.9957 73.1733 23.2287C73.1733 23.3849 73.1335 23.5284 73.054 23.6591C72.9773 23.7869 72.875 23.8892 72.7472 23.9659C72.6193 24.0426 72.4773 24.081 72.321 24.081ZM78.7546 24H77.3569L80.4975 15.2727H82.0188L85.1594 24H83.7617L81.2944 16.858H81.2262L78.7546 24ZM78.989 20.5824H83.5231V21.6903H78.989V20.5824ZM86.4197 24V15.2727H87.7365V22.8665H91.6911V24H86.4197ZM93.1932 24V15.2727H94.5099V22.8665H98.4645V24H93.1932ZM11.9588 39V30.2727H13.2756V34.4403H13.3821L17.0426 30.2727H18.7003L15.1804 34.2017L18.7131 39H17.1278L14.3068 35.1009L13.2756 36.2855V39H11.9588ZM19.9276 39V30.2727H25.3991V31.4062H21.2443V34.0653H25.1136V35.1946H21.2443V37.8665H25.4503V39H19.9276ZM26.4847 30.2727H27.9805L30.2603 34.2401H30.354L32.6339 30.2727H34.1296L30.9634 35.5739V39H29.6509V35.5739L26.4847 30.2727ZM42.1761 33.1108H40.8466C40.7955 32.8267 40.7003 32.5767 40.5611 32.3608C40.4219 32.1449 40.2514 31.9616 40.0497 31.8111C39.848 31.6605 39.6222 31.5469 39.3722 31.4702C39.125 31.3935 38.8622 31.3551 38.5838 31.3551C38.081 31.3551 37.6307 31.4815 37.233 31.7344C36.8381 31.9872 36.5256 32.358 36.2955 32.8466C36.0682 33.3352 35.9545 33.9318 35.9545 34.6364C35.9545 35.3466 36.0682 35.946 36.2955 36.4347C36.5256 36.9233 36.8395 37.2926 37.2372 37.5426C37.6349 37.7926 38.0824 37.9176 38.5795 37.9176C38.8551 37.9176 39.1165 37.8807 39.3636 37.8068C39.6136 37.7301 39.8395 37.6179 40.0412 37.4702C40.2429 37.3224 40.4134 37.142 40.5526 36.929C40.6946 36.7131 40.7926 36.4659 40.8466 36.1875L42.1761 36.1918C42.1051 36.6207 41.9673 37.0156 41.7628 37.3764C41.5611 37.7344 41.3011 38.044 40.983 38.3054C40.6676 38.5639 40.3068 38.7642 39.9006 38.9062C39.4943 39.0483 39.0511 39.1193 38.571 39.1193C37.8153 39.1193 37.142 38.9403 36.5511 38.5824C35.9602 38.2216 35.4943 37.706 35.1534 37.0355C34.8153 36.3651 34.6463 35.5653 34.6463 34.6364C34.6463 33.7045 34.8168 32.9048 35.1577 32.2372C35.4986 31.5668 35.9645 31.0526 36.5554 30.6946C37.1463 30.3338 37.8182 30.1534 38.571 30.1534C39.0341 30.1534 39.4659 30.2202 39.8665 30.3537C40.2699 30.4844 40.6321 30.6776 40.9531 30.9332C41.2741 31.1861 41.5398 31.4957 41.75 31.8622C41.9602 32.2259 42.1023 32.642 42.1761 33.1108ZM44.4304 39H43.0327L46.1733 30.2727H47.6946L50.8352 39H49.4375L46.9702 31.858H46.902L44.4304 39ZM44.6648 35.5824H49.1989V36.6903H44.6648V35.5824ZM52.0955 39V30.2727H55.2063C55.8853 30.2727 56.4478 30.3963 56.8938 30.6435C57.3398 30.8906 57.6737 31.2287 57.8952 31.6577C58.1168 32.0838 58.2276 32.5639 58.2276 33.098C58.2276 33.6349 58.1154 34.1179 57.891 34.5469C57.6694 34.973 57.3342 35.3111 56.8853 35.5611C56.4393 35.8082 55.8782 35.9318 55.2021 35.9318H53.0629V34.8153H55.0827C55.5117 34.8153 55.8597 34.7415 56.1268 34.5938C56.3938 34.4432 56.5898 34.2386 56.7148 33.9801C56.8398 33.7216 56.9023 33.4276 56.9023 33.098C56.9023 32.7685 56.8398 32.4759 56.7148 32.2202C56.5898 31.9645 56.3924 31.7642 56.1225 31.6193C55.8555 31.4744 55.5032 31.402 55.0657 31.402H53.4123V39H52.0955Z" fill="white"/>
</svg>
