<svg width="80" height="35" viewBox="0 0 110 35" fill="none" xmlns="http://www.w3.org/2000/svg">
<rect width="1.66667" height="10" fill="white"/>
<rect width="10" height="1.66667" fill="white"/>
<rect width="1.66667" height="10" transform="matrix(-1 0 0 1 110 0)" fill="white"/>
<path d="M110 0H100V1.66667H110V0Z" fill="white"/>
<path d="M11.5284 9.40625V8.27273H18.2827V9.40625H15.5597V17H14.2472V9.40625H11.5284ZM19.7752 17V8.27273H25.2468V9.40625H21.092V12.0653H24.9613V13.1946H21.092V15.8665H25.2979V17H19.7752ZM31.7656 10.5653C31.7202 10.1619 31.5327 9.84943 31.2031 9.62784C30.8736 9.40341 30.4588 9.29119 29.9588 9.29119C29.6009 9.29119 29.2912 9.34801 29.0298 9.46165C28.7685 9.57244 28.5653 9.72585 28.4205 9.92188C28.2784 10.1151 28.2074 10.3352 28.2074 10.5824C28.2074 10.7898 28.2557 10.9687 28.3523 11.1193C28.4517 11.2699 28.581 11.3963 28.7401 11.4986C28.902 11.598 29.0753 11.6818 29.2599 11.75C29.4446 11.8153 29.6222 11.8693 29.7926 11.9119L30.6449 12.1335C30.9233 12.2017 31.2088 12.294 31.5014 12.4105C31.794 12.527 32.0653 12.6804 32.3153 12.8707C32.5653 13.0611 32.767 13.2969 32.9205 13.5781C33.0767 13.8594 33.1548 14.196 33.1548 14.5881C33.1548 15.0824 33.027 15.5213 32.7713 15.9048C32.5185 16.2884 32.1506 16.5909 31.6676 16.8125C31.1875 17.0341 30.6065 17.1449 29.9247 17.1449C29.2713 17.1449 28.706 17.0412 28.2287 16.8338C27.7514 16.6264 27.3778 16.3324 27.108 15.9517C26.8381 15.5682 26.6889 15.1136 26.6605 14.5881H27.9815C28.0071 14.9034 28.1094 15.1662 28.2884 15.3764C28.4702 15.5838 28.7017 15.7386 28.983 15.8409C29.267 15.9403 29.5781 15.9901 29.9162 15.9901C30.2884 15.9901 30.6193 15.9318 30.9091 15.8153C31.2017 15.696 31.4318 15.5312 31.5994 15.321C31.767 15.108 31.8509 14.8594 31.8509 14.5753C31.8509 14.3168 31.777 14.1051 31.6293 13.9403C31.4844 13.7756 31.2869 13.6392 31.0369 13.5312C30.7898 13.4233 30.5099 13.3281 30.1974 13.2457L29.1662 12.9645C28.4673 12.7741 27.9134 12.4943 27.5043 12.125C27.098 11.7557 26.8949 11.267 26.8949 10.6591C26.8949 10.1562 27.0313 9.71733 27.304 9.34233C27.5767 8.96733 27.946 8.67614 28.4119 8.46875C28.8778 8.25852 29.4034 8.15341 29.9886 8.15341C30.5795 8.15341 31.1009 8.2571 31.5526 8.46449C32.0071 8.67188 32.3651 8.95739 32.6264 9.32102C32.8878 9.68182 33.0241 10.0966 33.0355 10.5653H31.7656ZM34.2979 9.40625V8.27273H41.0522V9.40625H38.3292V17H37.0167V9.40625H34.2979ZM42.8718 17.081C42.6388 17.081 42.4386 16.9986 42.271 16.8338C42.1033 16.6662 42.0195 16.4645 42.0195 16.2287C42.0195 15.9957 42.1033 15.7969 42.271 15.6321C42.4386 15.4645 42.6388 15.3807 42.8718 15.3807C43.1048 15.3807 43.305 15.4645 43.4727 15.6321C43.6403 15.7969 43.7241 15.9957 43.7241 16.2287C43.7241 16.3849 43.6843 16.5284 43.6048 16.6591C43.5281 16.7869 43.4258 16.8892 43.2979 16.9659C43.1701 17.0426 43.0281 17.081 42.8718 17.081ZM51.4872 17.1449C50.8139 17.142 50.2386 16.9645 49.7614 16.6122C49.2841 16.2599 48.919 15.7472 48.6662 15.0739C48.4134 14.4006 48.2869 13.5895 48.2869 12.6406C48.2869 11.6946 48.4134 10.8864 48.6662 10.2159C48.9219 9.54545 49.2884 9.03409 49.7656 8.68182C50.2457 8.32955 50.8196 8.15341 51.4872 8.15341C52.1548 8.15341 52.7273 8.33097 53.2045 8.68608C53.6818 9.03835 54.0469 9.54972 54.2997 10.2202C54.5554 10.8878 54.6832 11.6946 54.6832 12.6406C54.6832 13.5923 54.5568 14.4048 54.304 15.0781C54.0511 15.7486 53.6861 16.2614 53.2088 16.6165C52.7315 16.9688 52.1577 17.1449 51.4872 17.1449ZM51.4872 16.0071C52.0781 16.0071 52.5398 15.7188 52.8722 15.142C53.2074 14.5653 53.375 13.7315 53.375 12.6406C53.375 11.9162 53.2983 11.304 53.1449 10.804C52.9943 10.3011 52.777 9.92045 52.4929 9.66193C52.2116 9.40057 51.8764 9.26989 51.4872 9.26989C50.8991 9.26989 50.4375 9.55966 50.1023 10.1392C49.767 10.7187 49.598 11.5526 49.5952 12.6406C49.5952 13.3679 49.6705 13.983 49.821 14.4858C49.9744 14.9858 50.1918 15.3651 50.473 15.6236C50.7543 15.8793 51.0923 16.0071 51.4872 16.0071ZM59.2333 17.1449C58.56 17.142 57.9847 16.9645 57.5075 16.6122C57.0302 16.2599 56.6651 15.7472 56.4123 15.0739C56.1594 14.4006 56.033 13.5895 56.033 12.6406C56.033 11.6946 56.1594 10.8864 56.4123 10.2159C56.668 9.54545 57.0344 9.03409 57.5117 8.68182C57.9918 8.32955 58.5657 8.15341 59.2333 8.15341C59.9009 8.15341 60.4734 8.33097 60.9506 8.68608C61.4279 9.03835 61.793 9.54972 62.0458 10.2202C62.3015 10.8878 62.4293 11.6946 62.4293 12.6406C62.4293 13.5923 62.3029 14.4048 62.0501 15.0781C61.7972 15.7486 61.4322 16.2614 60.9549 16.6165C60.4776 16.9688 59.9038 17.1449 59.2333 17.1449ZM59.2333 16.0071C59.8242 16.0071 60.2859 15.7188 60.6183 15.142C60.9535 14.5653 61.1211 13.7315 61.1211 12.6406C61.1211 11.9162 61.0444 11.304 60.891 10.804C60.7404 10.3011 60.5231 9.92045 60.239 9.66193C59.9577 9.40057 59.6225 9.26989 59.2333 9.26989C58.6452 9.26989 58.1836 9.55966 57.8484 10.1392C57.5131 10.7187 57.3441 11.5526 57.3413 12.6406C57.3413 13.3679 57.4165 13.983 57.5671 14.4858C57.7205 14.9858 57.9379 15.3651 58.2191 15.6236C58.5004 15.8793 58.8384 16.0071 59.2333 16.0071ZM63.7578 15.2955V14.2301L67.5291 8.27273H68.3686V9.84091H67.8359L65.1385 14.1108V14.179H70.3075V15.2955H63.7578ZM67.8956 17V14.9716L67.9041 14.4858V8.27273H69.1527V17H67.8956ZM72.321 17.081C72.0881 17.081 71.8878 16.9986 71.7202 16.8338C71.5526 16.6662 71.4688 16.4645 71.4688 16.2287C71.4688 15.9957 71.5526 15.7969 71.7202 15.6321C71.8878 15.4645 72.0881 15.3807 72.321 15.3807C72.554 15.3807 72.7543 15.4645 72.9219 15.6321C73.0895 15.7969 73.1733 15.9957 73.1733 16.2287C73.1733 16.3849 73.1335 16.5284 73.054 16.6591C72.9773 16.7869 72.875 16.8892 72.7472 16.9659C72.6193 17.0426 72.4773 17.081 72.321 17.081ZM78.7546 17H77.3569L80.4975 8.27273H82.0188L85.1594 17H83.7617L81.2944 9.85795H81.2262L78.7546 17ZM78.989 13.5824H83.5231V14.6903H78.989V13.5824ZM86.4197 17V8.27273H87.7365V15.8665H91.6911V17H86.4197ZM93.1932 17V8.27273H94.5099V15.8665H98.4645V17H93.1932ZM11.9588 32V23.2727H13.2756V27.4403H13.3821L17.0426 23.2727H18.7003L15.1804 27.2017L18.7131 32H17.1278L14.3068 28.1009L13.2756 29.2855V32H11.9588ZM19.9276 32V23.2727H25.3991V24.4062H21.2443V27.0653H25.1136V28.1946H21.2443V30.8665H25.4503V32H19.9276ZM26.4847 23.2727H27.9805L30.2603 27.2401H30.354L32.6339 23.2727H34.1296L30.9634 28.5739V32H29.6509V28.5739L26.4847 23.2727ZM42.1761 26.1108H40.8466C40.7955 25.8267 40.7003 25.5767 40.5611 25.3608C40.4219 25.1449 40.2514 24.9616 40.0497 24.8111C39.848 24.6605 39.6222 24.5469 39.3722 24.4702C39.125 24.3935 38.8622 24.3551 38.5838 24.3551C38.081 24.3551 37.6307 24.4815 37.233 24.7344C36.8381 24.9872 36.5256 25.358 36.2955 25.8466C36.0682 26.3352 35.9545 26.9318 35.9545 27.6364C35.9545 28.3466 36.0682 28.946 36.2955 29.4347C36.5256 29.9233 36.8395 30.2926 37.2372 30.5426C37.6349 30.7926 38.0824 30.9176 38.5795 30.9176C38.8551 30.9176 39.1165 30.8807 39.3636 30.8068C39.6136 30.7301 39.8395 30.6179 40.0412 30.4702C40.2429 30.3224 40.4134 30.142 40.5526 29.929C40.6946 29.7131 40.7926 29.4659 40.8466 29.1875L42.1761 29.1918C42.1051 29.6207 41.9673 30.0156 41.7628 30.3764C41.5611 30.7344 41.3011 31.044 40.983 31.3054C40.6676 31.5639 40.3068 31.7642 39.9006 31.9062C39.4943 32.0483 39.0511 32.1193 38.571 32.1193C37.8153 32.1193 37.142 31.9403 36.5511 31.5824C35.9602 31.2216 35.4943 30.706 35.1534 30.0355C34.8153 29.3651 34.6463 28.5653 34.6463 27.6364C34.6463 26.7045 34.8168 25.9048 35.1577 25.2372C35.4986 24.5668 35.9645 24.0526 36.5554 23.6946C37.1463 23.3338 37.8182 23.1534 38.571 23.1534C39.0341 23.1534 39.4659 23.2202 39.8665 23.3537C40.2699 23.4844 40.6321 23.6776 40.9531 23.9332C41.2741 24.1861 41.5398 24.4957 41.75 24.8622C41.9602 25.2259 42.1023 25.642 42.1761 26.1108ZM44.4304 32H43.0327L46.1733 23.2727H47.6946L50.8352 32H49.4375L46.9702 24.858H46.902L44.4304 32ZM44.6648 28.5824H49.1989V29.6903H44.6648V28.5824ZM52.0955 32V23.2727H55.2063C55.8853 23.2727 56.4478 23.3963 56.8938 23.6435C57.3398 23.8906 57.6737 24.2287 57.8952 24.6577C58.1168 25.0838 58.2276 25.5639 58.2276 26.098C58.2276 26.6349 58.1154 27.1179 57.891 27.5469C57.6694 27.973 57.3342 28.3111 56.8853 28.5611C56.4393 28.8082 55.8782 28.9318 55.2021 28.9318H53.0629V27.8153H55.0827C55.5117 27.8153 55.8597 27.7415 56.1268 27.5938C56.3938 27.4432 56.5898 27.2386 56.7148 26.9801C56.8398 26.7216 56.9023 26.4276 56.9023 26.098C56.9023 25.7685 56.8398 25.4759 56.7148 25.2202C56.5898 24.9645 56.3924 24.7642 56.1225 24.6193C55.8555 24.4744 55.5032 24.402 55.0657 24.402H53.4123V32H52.0955Z" fill="white"/>
</svg>
