<svg width="83" height="68" viewBox="0 0 83 68" fill="none" xmlns="http://www.w3.org/2000/svg">
<path fill-rule="evenodd" clip-rule="evenodd" d="M32.375 26.4159C32.0093 26.2874 31.6087 26.4795 31.4801 26.8452C31.3516 27.2109 31.5437 27.6116 31.9094 27.7401L32.1538 27.8261C32.7786 28.0457 33.1892 28.1913 33.4913 28.3395C33.7751 28.4788 33.9002 28.5914 33.9826 28.712C34.067 28.8356 34.1323 29.0054 34.1691 29.3454C34.2076 29.7012 34.2085 30.1646 34.2085 30.8571V33.4039C34.2085 34.7631 34.2212 35.7432 34.3495 36.4921C34.4864 37.2915 34.7598 37.8639 35.2709 38.403C35.8267 38.9892 36.5312 39.2444 37.3699 39.3633C38.173 39.4771 39.1928 39.4771 40.4521 39.4771H45.5107C46.2048 39.4771 46.7888 39.4771 47.2613 39.4193C47.7626 39.358 48.2198 39.2238 48.619 38.8987C49.0181 38.5734 49.2417 38.1527 49.403 37.6741C49.555 37.2229 49.6729 36.6509 49.813 35.9712L50.2892 33.6604L50.2901 33.6561L50.2999 33.6072C50.454 32.8353 50.5837 32.1859 50.6159 31.6637C50.6498 31.1151 50.5873 30.5743 50.23 30.1098C50.0101 29.824 49.7009 29.6621 49.4198 29.5633C49.1329 29.4626 48.8086 29.4043 48.4813 29.3676C47.8384 29.2958 47.0573 29.2958 46.2913 29.2958H35.5746C35.5715 29.2614 35.5682 29.2276 35.5646 29.1943C35.5143 28.7298 35.4054 28.3062 35.1415 27.92C34.8756 27.5309 34.522 27.2816 34.1096 27.0793C33.724 26.8901 33.234 26.7179 32.657 26.5151L32.375 26.4159ZM35.6122 30.6995H46.2621C47.0635 30.6995 47.7688 30.7004 48.3255 30.7626C48.602 30.7936 48.809 30.8366 48.9544 30.8876C49.0733 30.9294 49.1136 30.9635 49.1193 30.9685C49.1768 31.0446 49.2392 31.1828 49.2148 31.5772C49.1893 31.9923 49.0803 32.5465 48.914 33.3793L48.9136 33.3814L48.4468 35.6461C48.2958 36.3787 48.1942 36.8656 48.0729 37.2258C47.9576 37.5677 47.8494 37.715 47.7323 37.8105C47.6151 37.906 47.4489 37.9823 47.0908 38.0261C46.7135 38.0722 46.2161 38.0735 45.4681 38.0735H40.5058C39.1799 38.0735 38.26 38.0718 37.5669 37.9735C36.898 37.8787 36.5446 37.7063 36.2896 37.4373C35.99 37.1213 35.8284 36.8119 35.733 36.2551C35.629 35.6478 35.6122 34.7973 35.6122 33.4039V30.6995Z" fill="#040404"/>
<path fill-rule="evenodd" clip-rule="evenodd" d="M37.2891 44.6236C36.1263 44.6236 35.1836 43.6809 35.1836 42.5182C35.1836 41.3553 36.1263 40.4126 37.2891 40.4126C38.4519 40.4126 39.3946 41.3553 39.3946 42.5182C39.3946 43.6809 38.4519 44.6236 37.2891 44.6236ZM36.5873 42.5182C36.5873 42.9057 36.9015 43.22 37.2891 43.22C37.6767 43.22 37.9909 42.9057 37.9909 42.5182C37.9909 42.1305 37.6767 41.8163 37.2891 41.8163C36.9015 41.8163 36.5873 42.1305 36.5873 42.5182Z" fill="#040404"/>
<path fill-rule="evenodd" clip-rule="evenodd" d="M45.7109 44.6241C44.5482 44.6241 43.6055 43.6814 43.6055 42.5186C43.6055 41.3558 44.5482 40.4131 45.7109 40.4131C46.8738 40.4131 47.8165 41.3558 47.8165 42.5186C47.8165 43.6814 46.8738 44.6241 45.7109 44.6241ZM45.0091 42.5186C45.0091 42.9062 45.3234 43.2204 45.7109 43.2204C46.0986 43.2204 46.4128 42.9062 46.4128 42.5186C46.4128 42.131 46.0986 41.8168 45.7109 41.8168C45.3234 41.8168 45.0091 42.131 45.0091 42.5186Z" fill="#040404"/>
</svg>
