
<svg version="1.0" xmlns="http://www.w3.org/2000/svg"
width="23" height="23" viewBox="0 0 48.000000 48.000000"
 preserveAspectRatio="xMidYMid meet">

<g transform="translate(0.000000,48.000000) scale(0.100000,-0.100000)"
fill="#000000" stroke="none">
<path d="M12 388 c3 -7 19 -14 36 -16 18 -2 32 -6 32 -10 0 -4 7 -50 15 -102
10 -63 21 -99 32 -107 11 -9 55 -13 130 -13 93 0 113 3 113 15 0 12 -21 15
-112 17 -78 2 -113 7 -116 16 -3 9 23 12 108 12 61 0 120 4 130 10 19 10 47
131 35 150 -4 6 -70 10 -155 10 -122 0 -149 3 -154 15 -7 19 -100 22 -94 3z"/>
<path d="M144 96 c-9 -24 4 -48 23 -44 12 2 18 12 18 28 0 29 -32 41 -41 16z"/>
<path d="M303 94 c-3 -8 2 -23 11 -32 15 -15 17 -15 32 0 21 21 11 48 -16 48
-11 0 -23 -7 -27 -16z"/>
</g>
</svg>
